<svg width="231" height="73" viewBox="0 0 231 73" fill="none" xmlns="http://www.w3.org/2000/svg">
<path d="M83.6099 12.2913C74.0933 12.2913 66.918 18.9319 66.918 27.7535C66.918 36.575 74.1928 43.2653 83.5106 43.2653C89.0913 43.2653 93.4761 40.8865 96.3163 37.5166V36.8227L90.7852 32.1646H90.1375C89.3104 33.069 88.3026 33.7919 87.1786 34.2868C86.0546 34.7818 84.8391 35.038 83.6099 35.039C81.6703 35.1083 79.7818 34.4125 78.3558 33.1032C76.9297 31.7939 76.0816 29.9772 75.9962 28.0487C75.9107 26.1203 76.595 24.2364 77.8998 22.8075C79.2045 21.3785 81.0242 20.5202 82.9624 20.4196H83.6099C84.8354 20.443 86.0439 20.7092 87.1648 21.2027C88.2856 21.6962 89.2962 22.407 90.1375 23.2937H90.7852L96.3161 18.5857V17.9414C94.7252 16.1536 92.7685 14.7246 90.5771 13.7502C88.3857 12.7757 86.0103 12.2783 83.6099 12.2913Z" fill="white"/>
<path d="M100.951 42.6699H123.971V35.1869H110.119V30.9744H120.533V23.9868H110.119V19.7743H123.971V12.291H100.951V42.6699Z" fill="white"/>
<path d="M209.674 10.4554L221.732 5.94555V5.30132L218.543 0.0976562H217.896L207.232 6.58978V7.23423L209.026 10.4556L209.674 10.4554Z" fill="white"/>
<path d="M226.367 32.1639L222.73 24.0858L217.398 12.291H208.978L196.172 42.67H205.789L207.483 38.1105H218.893C219.641 39.5293 220.636 40.8046 221.833 41.877C223.2 42.874 224.874 43.3648 226.567 43.2646C228.09 43.3144 229.6 42.9728 230.951 42.2728L226.866 33.2048C226.716 32.9075 226.567 32.5606 226.367 32.1641M209.874 32.0649L213.262 23.0452L216.451 32.0649H209.874Z" fill="white"/>
<path d="M157.556 32.1639L153.918 24.086L148.637 12.291H140.216L127.41 42.67H137.027L138.721 38.1105H150.132C150.879 39.5293 151.875 40.8047 153.071 41.877C154.438 42.874 156.113 43.3648 157.805 43.2646C159.328 43.3144 160.838 42.9728 162.19 42.2728L158.054 33.2048C157.849 32.8779 157.681 32.5287 157.556 32.1641M141.013 32.0649L144.401 22.9959L147.59 32.0155L141.013 32.0649Z" fill="white"/>
<path d="M186.604 30.7762C189.943 29.2886 192.135 26.4152 192.135 22.4504C192.135 16.2556 187.9 12.291 179.977 12.291H165.727V42.67H174.895V32.0151H175.642C177.685 32.0151 179.579 36.178 180.675 38.1599C182.718 41.7776 184.711 43.2644 188.847 43.2644C190.69 43.2644 192.584 42.6697 193.531 41.9263L193.581 41.8271L186.805 30.974C186.705 30.9244 186.655 30.8252 186.605 30.7758M179.629 25.9678H174.895V19.7743H179.629C180.028 19.752 180.429 19.809 180.806 19.9419C181.183 20.0747 181.531 20.2809 181.827 20.5483C182.124 20.8157 182.364 21.1391 182.534 21.4997C182.704 21.8603 182.8 22.2509 182.817 22.6487V22.9461C182.817 24.9284 181.322 25.9195 179.628 25.9691" fill="white"/>
<path d="M76.735 53.4743C76.7384 54.0926 76.6166 54.7052 76.3769 55.2756C76.1373 55.8461 75.7845 56.3627 75.3399 56.7947C74.3988 57.6845 73.1503 58.1812 71.8519 58.1823C70.5568 58.1823 69.3148 57.6706 68.399 56.7598C67.4832 55.849 66.9688 54.6137 66.9688 53.3256C66.9688 52.0375 67.4832 50.8022 68.399 49.8913C69.3148 48.9805 70.5568 48.4688 71.8519 48.4688C72.5916 48.4647 73.3232 48.6224 73.9948 48.9307C74.6665 49.239 75.2617 49.6904 75.7385 50.253V50.4017L74.3433 51.5416H74.1441C73.8701 51.1991 73.5214 50.9229 73.1243 50.734C72.7273 50.5452 72.2922 50.4485 71.8521 50.4513C71.4945 50.4512 71.1405 50.522 70.8108 50.6596C70.481 50.7972 70.1821 50.9987 69.9316 51.2525C69.6811 51.5063 69.484 51.8072 69.3517 52.1377C69.2195 52.4681 69.1548 52.8214 69.1615 53.177V53.2762C69.151 53.6393 69.2144 54.0007 69.3478 54.3389C69.4812 54.677 69.6818 54.9849 69.9378 55.244C70.1937 55.5032 70.4995 55.7083 70.8371 55.847C71.1746 55.9858 71.5368 56.0553 71.902 56.0515C72.5729 56.0572 73.2248 55.8293 73.7446 55.4073C74.0984 55.0745 74.3418 54.6423 74.4422 54.1684H71.9514V52.533H76.5356L76.7348 52.6818V53.4748" fill="white"/>
<path d="M78.2285 53.3743C78.2285 50.599 80.4709 48.5176 83.3607 48.5176C86.2506 48.5176 88.493 50.599 88.493 53.3743C88.493 56.1496 86.2506 58.2311 83.3607 58.2311C80.4709 58.2311 78.2285 56.15 78.2285 53.3743ZM86.201 53.3743C86.201 52.8157 86.0344 52.2696 85.7224 51.8052C85.4103 51.3407 84.9668 50.9787 84.4479 50.7649C83.929 50.5511 83.358 50.4952 82.8072 50.6042C82.2563 50.7131 81.7503 50.9821 81.3531 51.3771C80.956 51.7721 80.6855 52.2754 80.5759 52.8233C80.4664 53.3712 80.5226 53.9391 80.7375 54.4552C80.9525 54.9713 81.3165 55.4124 81.7835 55.7228C82.2505 56.0331 82.7995 56.1988 83.3612 56.1988C83.725 56.2115 84.0878 56.152 84.4283 56.0238C84.7689 55.8957 85.0804 55.7014 85.3447 55.4524C85.609 55.2033 85.8208 54.9044 85.9678 54.5731C86.1148 54.2418 86.1941 53.8847 86.201 53.5227V53.3739" fill="white"/>
<path d="M99.0573 48.8636L94.8219 58.0318H93.5264L89.291 48.8636L89.3907 48.7148H91.6827L94.1742 54.6619L96.7651 48.7148H98.9576L99.0573 48.8636Z" fill="white"/>
<path d="M103.044 50.5475V52.4802H106.582V54.2147H103.044V56.197H107.628V58.0297H100.752V48.7148H107.628V50.5475H103.044Z" fill="white"/>
<path d="M117.693 57.8335L117.593 57.9823H115.351L113.458 54.4636H112.162V57.9823H109.92V48.7148H113.956C116.348 48.7148 117.593 49.8548 117.593 51.6883C117.601 52.2566 117.426 52.8126 117.095 53.2759C116.764 53.7391 116.293 54.0856 115.751 54.2652L117.693 57.8335ZM112.162 52.9767H114.005C114.315 53.0093 114.626 52.918 114.869 52.7229C115.112 52.5277 115.267 52.2448 115.3 51.936V51.7872C115.307 51.6268 115.282 51.4666 115.225 51.3163C115.168 51.166 115.081 51.0288 114.969 50.913C114.857 50.7971 114.723 50.7051 114.574 50.6424C114.426 50.5797 114.266 50.5477 114.104 50.5484H112.161L112.162 52.9767Z" fill="white"/>
<path d="M128.255 48.7148V58.0814H126.86L122.076 52.4813V58.0318H119.834V48.7148H121.229L125.963 54.2654V48.7148H128.255Z" fill="white"/>
<path d="M130.398 53.3743C130.398 50.599 132.641 48.5176 135.531 48.5176C138.421 48.5176 140.663 50.599 140.663 53.3743C140.663 56.1496 138.421 58.2311 135.531 58.2311C132.641 58.2311 130.398 56.1 130.398 53.3743ZM138.371 53.3743C138.371 52.6252 138.072 51.9068 137.539 51.3771C137.007 50.8475 136.284 50.5499 135.531 50.5499C134.778 50.5499 134.056 50.8475 133.523 51.3771C132.99 51.9068 132.691 52.6252 132.691 53.3743C132.687 53.7464 132.758 54.1156 132.899 54.4602C133.04 54.8048 133.249 55.1179 133.513 55.381C133.778 55.6442 134.093 55.8521 134.439 55.9925C134.786 56.1329 135.157 56.203 135.531 56.1988C135.895 56.2115 136.258 56.152 136.598 56.0238C136.939 55.8957 137.25 55.7014 137.515 55.4524C137.779 55.2033 137.991 54.9044 138.138 54.5731C138.285 54.2418 138.364 53.8847 138.371 53.5227V53.3739" fill="white"/>
<path d="M155.561 53.3239C155.561 56.1483 153.667 57.9823 150.628 57.9823H146.543V48.7148H150.629C153.668 48.7148 155.562 50.5475 155.562 53.3239M153.27 53.3239C153.27 51.5397 152.174 50.4994 150.529 50.4994H148.735V56.1483H150.529C152.174 56.1483 153.27 55.1076 153.27 53.3239Z" fill="white"/>
<path d="M157.156 53.3743C157.156 50.599 159.399 48.5176 162.288 48.5176C165.178 48.5176 167.421 50.599 167.421 53.3743C167.421 56.1496 165.178 58.2311 162.288 58.2311C159.399 58.2311 157.156 56.15 157.156 53.3743ZM165.129 53.3743C165.134 52.8205 164.973 52.2777 164.668 51.8146C164.363 51.3514 163.926 50.9887 163.414 50.7722C162.901 50.5558 162.336 50.4954 161.789 50.5987C161.242 50.7019 160.738 50.9642 160.34 51.3524C159.943 51.7405 159.671 52.2371 159.557 52.7793C159.444 53.3215 159.495 53.885 159.703 54.3985C159.912 54.912 160.269 55.3524 160.729 55.6641C161.189 55.9758 161.732 56.1448 162.289 56.1496H162.339C162.703 56.1623 163.065 56.1028 163.406 55.9747C163.746 55.8465 164.058 55.6523 164.322 55.4032C164.587 55.1541 164.798 54.8552 164.945 54.5239C165.092 54.1927 165.172 53.8356 165.179 53.4735C165.15 53.4478 165.132 53.4124 165.129 53.3743Z" fill="white"/>
<path d="M175.543 50.5475V52.4802H179.081V54.2147H175.543V56.197H180.177V58.0297H173.301V48.7148H180.127V50.5475H175.543Z" fill="white"/>
<path d="M181.721 56.496V56.3475L182.817 55.059H182.967C183.293 55.4279 183.69 55.7278 184.135 55.9406C184.581 56.1534 185.064 56.2749 185.558 56.2979C186.504 56.2979 187.053 55.9014 187.053 55.3563C187.053 54.5633 186.157 54.4644 185.011 54.1174C183.715 53.7209 182.171 52.9775 182.171 51.243C182.171 49.6076 183.616 48.4677 185.709 48.4677C186.362 48.4451 187.014 48.5567 187.623 48.7954C188.231 49.0342 188.784 49.395 189.246 49.8553V50.0041L188.15 51.243H188.001C187.405 50.6363 186.608 50.2663 185.758 50.2022C185.011 50.2022 184.513 50.4996 184.513 51.0446C184.513 51.6393 185.21 51.8872 186.008 52.1845C187.603 52.6804 189.446 53.1763 189.446 55.2571C189.446 57.0898 187.802 58.0816 185.759 58.0816C185.008 58.1525 184.251 58.0457 183.55 57.7701C182.849 57.4946 182.223 57.0579 181.723 56.4958" fill="white"/>
<path d="M195.722 58.0318H193.481V50.5475H190.541V48.7148H198.714V50.5475H195.722V58.0318Z" fill="white"/>
<path d="M208.38 57.8342L208.28 58.0324H205.988L205.291 56.397H201.304L200.606 58.0324H198.414L198.314 57.8342L202.65 48.666H204.045L208.38 57.8342ZM204.692 54.8108L203.397 51.639L202.051 54.8108H204.692Z" fill="white"/>
<path d="M219.09 53.3239C219.09 56.1483 217.197 57.9823 214.157 57.9823H210.072V48.7148H214.158C217.198 48.7148 219.091 50.5475 219.091 53.3239M216.799 53.3239C216.799 51.5397 215.703 50.4994 214.108 50.4994H212.315V56.1483H214.108C215.753 56.1483 216.849 55.1076 216.799 53.3239Z" fill="white"/>
<path d="M220.736 53.3743C220.736 50.599 222.978 48.5176 225.869 48.5176C228.759 48.5176 231.001 50.599 231.001 53.3743C231.001 56.1496 228.759 58.2311 225.869 58.2311C222.978 58.2311 220.736 56.15 220.736 53.3743ZM228.709 53.3743C228.709 52.8157 228.542 52.2696 228.23 51.8052C227.918 51.3407 227.475 50.9787 226.956 50.7649C226.437 50.5511 225.866 50.4952 225.315 50.6042C224.764 50.7131 224.258 50.9821 223.861 51.3771C223.464 51.7721 223.193 52.2754 223.084 52.8233C222.974 53.3712 223.03 53.9391 223.245 54.4552C223.46 54.9713 223.824 55.4124 224.291 55.7228C224.758 56.0331 225.307 56.1988 225.869 56.1988C226.233 56.2115 226.596 56.152 226.936 56.0238C227.277 55.8957 227.588 55.7014 227.852 55.4524C228.117 55.2033 228.329 54.9044 228.476 54.5731C228.623 54.2418 228.702 53.8847 228.709 53.5227V53.3739" fill="white"/>
<path d="M49.5286 30.0827C49.8774 27.2082 51.9203 25.2259 54.312 23.6897L54.7605 23.442L46.7373 13.3818L46.5878 13.3322C45.6411 13.1341 44.6942 12.9853 43.748 12.8363C40.8579 12.4398 38.7651 12.1921 36.9715 11.9937L35.4757 11.8945H35.4259L34.9773 11.8449H34.7781L31.4896 11.6962H30.7933C26.7573 11.597 23.2195 11.7458 20.6782 11.8943C19.7814 11.9439 14.1508 12.489 13.0546 12.6377H12.905C11.6095 12.8359 8.96854 13.2324 8.02187 13.3811L0 23.442L0.448514 23.6897C2.83979 25.1755 4.88314 27.2084 5.23194 30.0827C5.58073 32.9569 3.98633 36.2274 2.89073 38.805C1.44504 42.273 0.0997179 45.6936 0.0997179 49.5097C0.117893 50.3301 0.234995 51.1454 0.448514 51.938C1.24582 54.4656 3.18902 56.4975 5.28266 58.1328C7.77724 59.9767 10.4281 61.6017 13.2052 62.9896C16.045 64.4773 18.9353 65.9134 21.6758 67.549C23.5185 68.6393 25.9113 70.2747 26.9078 72.2074L27.3064 73.0004L27.7051 72.2074C28.7023 70.2747 31.1432 68.6887 32.937 67.549C35.6775 65.9136 38.5676 64.4764 41.4076 62.9896C44.1848 61.6017 46.8356 59.9767 49.3302 58.1328C51.423 56.4975 53.3662 54.4656 54.1644 51.938C54.4055 51.1512 54.5232 50.3321 54.5132 49.5097C54.5132 45.6934 53.1678 42.2741 51.7228 38.805C50.7256 36.2281 49.1815 32.9571 49.5303 30.0827" fill="white"/>
<path fill-rule="evenodd" clip-rule="evenodd" d="M37.0723 1.93286L38.7165 2.18124V1.18945L37.0723 1.93286Z" fill="#EAD7B1"/>
<path fill-rule="evenodd" clip-rule="evenodd" d="M22.7207 0.644531V1.58608L23.6674 1.48691L22.7207 0.644531Z" fill="#EAD7B1"/>
<path fill-rule="evenodd" clip-rule="evenodd" d="M31.043 1.48767L31.9398 1.53726V0.595703L31.043 1.48767Z" fill="#EAD7B1"/>
<mask id="mask0_5602_534" style="mask-type:luminance" maskUnits="userSpaceOnUse" x="11" y="0" width="32" height="5">
<path d="M25.5619 0.148438C25.5102 0.151963 25.4616 0.17397 25.425 0.210393C25.3884 0.246815 25.3662 0.295191 25.3627 0.34658V1.63612C24.3655 1.63612 23.3696 1.68571 22.3731 1.7353V0.445759C22.3765 0.418833 22.3737 0.391499 22.3651 0.365759C22.3565 0.340018 22.3422 0.316522 22.3232 0.29699C22.3036 0.278156 22.28 0.263928 22.2541 0.255348C22.2282 0.246768 22.2007 0.244053 22.1737 0.247401C21.0774 0.29699 19.9315 0.396169 18.7854 0.495133C18.6857 0.495133 18.6359 0.594311 18.6359 0.693275V1.98109C17.6387 2.08027 16.7425 2.17923 15.7458 2.328V1.08999C15.7496 1.06308 15.7471 1.03565 15.7384 1.00988C15.7298 0.984097 15.7152 0.960674 15.6959 0.941456C15.6766 0.922238 15.653 0.907752 15.6271 0.899143C15.6012 0.890533 15.5736 0.888036 15.5466 0.891848C14.7991 0.991027 14.0508 1.18917 13.3044 1.33794C12.8775 1.44435 12.4451 1.52705 12.009 1.58567C11.9092 1.58567 11.8594 1.68485 11.8594 1.78381V3.22104L12.4074 4.26178C12.4572 4.31137 12.5071 4.36095 12.557 4.36095H12.6567C17.3378 3.61847 22.0677 3.22088 26.8077 3.17145C31.5912 3.17145 36.2749 3.71651 41.8556 4.60869H41.9055C41.9553 4.60869 42.0052 4.60869 42.0052 4.5591C42.0241 4.53957 42.0384 4.51607 42.047 4.49033C42.0557 4.46459 42.0584 4.43725 42.055 4.41033V4.26156L42.5035 3.41897L42.6033 3.22083V1.78381C42.6033 1.68463 42.5534 1.63504 42.4537 1.58567L41.9551 1.48649C41.0084 1.28835 40.0119 1.08999 39.065 0.941438C39.0379 0.938089 39.0105 0.940805 38.9846 0.949385C38.9587 0.957965 38.9351 0.972193 38.9154 0.991027C38.8656 0.991027 38.8656 1.04062 38.8157 1.09021V2.27971C38.0184 2.18053 37.2712 2.08156 36.5237 2.03197L35.9261 1.98109V0.74308C35.9261 0.643901 35.8762 0.594311 35.7765 0.544938C34.6802 0.445759 33.5344 0.346795 32.3882 0.297206C32.3612 0.293858 32.3337 0.296573 32.3078 0.305153C32.2819 0.313733 32.2583 0.327961 32.2387 0.346795C32.2197 0.366327 32.2054 0.389823 32.1968 0.415564C32.1882 0.441304 32.1854 0.468638 32.1888 0.495564V1.73422C31.1916 1.68463 30.1958 1.68463 29.1992 1.63504V0.34658C29.1957 0.295191 29.1736 0.246815 29.1369 0.210393C29.1003 0.17397 29.0517 0.151963 29 0.148438H25.5619Z" fill="white"/>
</mask>
<g mask="url(#mask0_5602_534)">
<path d="M42.7026 0.148438H11.8594V4.60869H42.7026V0.148438Z" fill="url(#paint0_linear_5602_534)"/>
</g>
<mask id="mask1_5602_534" style="mask-type:luminance" maskUnits="userSpaceOnUse" x="12" y="3" width="31" height="3">
<path d="M12.457 4.56051L13.8024 5.84897C18.2199 5.14763 22.6828 4.76665 27.1559 4.70906C31.7601 4.79128 36.3539 5.17205 40.9083 5.84897L41.8051 5.00638L42.0542 4.56029C37.3559 3.68509 32.5849 3.25375 27.8049 3.27204C22.6642 3.32769 17.5344 3.75834 12.457 4.56051Z" fill="white"/>
</mask>
<g mask="url(#mask1_5602_534)">
<path d="M42.0546 3.32227H12.457V5.89919H42.0546V3.32227Z" fill="url(#paint1_linear_5602_534)"/>
</g>
<mask id="mask2_5602_534" style="mask-type:luminance" maskUnits="userSpaceOnUse" x="11" y="4" width="32" height="10">
<path d="M14.8979 5.80017L11.8086 13.0853C11.8086 13.0853 19.4825 12.1933 27.7535 11.995C32.844 11.9022 37.932 12.2839 42.9509 13.1349C42.9011 13.0853 39.712 5.75079 39.712 5.75079C39.712 5.75079 34.231 5.05697 27.7036 4.9082H26.3084C22.4896 4.96087 18.6781 5.25881 14.8979 5.80017Z" fill="white"/>
</mask>
<g mask="url(#mask2_5602_534)">
<path d="M42.9499 4.9082H11.8574V13.1845H42.9499V4.9082Z" fill="url(#paint2_linear_5602_534)"/>
</g>
<path fill-rule="evenodd" clip-rule="evenodd" d="M29.4485 11.8937L24.8145 11.9433C24.8373 11.0772 24.9373 10.2148 25.1134 9.36632C25.3098 8.71334 25.7115 8.14017 26.2595 7.73095C26.5064 7.56884 26.7861 7.46262 27.0789 7.41982C27.3716 7.37701 27.6702 7.39865 27.9536 7.48322C28.5066 7.67407 28.9684 8.06273 29.2491 8.57354C29.5889 9.14829 29.7934 9.79221 29.847 10.4569C29.8968 10.9515 29.8968 11.4499 29.847 11.9445L29.4485 11.8937Z" fill="#EAD7B1"/>
<path fill-rule="evenodd" clip-rule="evenodd" d="M34.2308 6.19381C33.4834 6.2434 32.8357 6.68971 32.8855 7.28414C32.9354 7.87856 33.2842 10.6541 33.2842 10.6541L36.2738 10.8522L35.7257 7.03597C35.7257 7.03597 34.9783 6.14401 34.23 6.19338" fill="#EAD7B1"/>
<mask id="mask3_5602_534" style="mask-type:luminance" maskUnits="userSpaceOnUse" x="2" y="14" width="50" height="55">
<path d="M9.31739 15.7611L3.6378 22.7974C5.78044 24.5816 7.37484 26.8116 7.72364 29.7357C8.12229 33.2048 6.57753 36.6739 5.28206 39.7961C3.9866 42.9183 2.64062 46.1401 2.64062 49.5589C2.65021 50.1126 2.73398 50.6626 2.8897 51.1943C4.18517 55.3572 10.7126 58.7767 14.3501 60.7094C17.2402 62.2459 20.2298 63.6829 23.0201 65.3678C24.5563 66.215 25.9934 67.2288 27.3052 68.3906C28.5643 67.2306 29.9517 66.2164 31.4409 65.3676C34.2312 63.6827 37.2208 62.2454 40.1109 60.7092C43.9975 58.6774 51.8703 54.6632 51.8703 49.5587C51.8703 46.1392 50.5748 42.9674 49.2793 39.8452C47.9839 36.723 46.4395 33.2045 46.7879 29.7354C47.1367 26.8116 48.7311 24.6805 50.8737 22.8964L45.1941 15.7611C39.4679 14.77 33.6664 14.2722 27.8541 14.2734C21.6451 14.2741 15.4462 14.7716 9.31739 15.7611Z" fill="white"/>
</mask>
<g mask="url(#mask3_5602_534)">
<path d="M51.8204 14.2246H2.64062V68.3918H51.8204V14.2246Z" fill="url(#paint3_radial_5602_534)"/>
</g>
<path fill-rule="evenodd" clip-rule="evenodd" d="M10.3642 25.2246L9.86556 26.7123H8.37109L9.6167 27.6538L9.11811 29.1415L10.3637 28.2L11.5597 29.1415L11.1112 27.6538L12.3572 26.7123H10.8127L10.3642 25.2246Z" fill="white"/>
<path fill-rule="evenodd" clip-rule="evenodd" d="M9.06923 35.334L8.62072 36.8217H7.07617L8.32178 37.7632L7.87326 39.2509L9.06923 38.3094L10.3148 39.2509L9.81625 37.7632L11.0623 36.8217H9.51774L9.06923 35.334Z" fill="white"/>
<path fill-rule="evenodd" clip-rule="evenodd" d="M7.4247 44.4043L6.97618 45.892H5.43164L6.67725 46.8335L6.17866 48.3212L7.42426 47.3797L8.66987 48.3212L8.17128 46.8335L9.41775 45.892H7.87321L7.4247 44.4043Z" fill="white"/>
<path fill-rule="evenodd" clip-rule="evenodd" d="M27.1573 60.2129L26.7088 61.7006L25.1641 61.651L26.4097 62.5925L25.9612 64.0802L27.1571 63.1387L28.4027 64.0802L27.9041 62.5925L29.1497 61.651L27.654 61.7006L27.1573 60.2129Z" fill="white"/>
<path fill-rule="evenodd" clip-rule="evenodd" d="M36.3231 56.498L35.8245 57.9857H34.3301L35.5757 58.9273L35.0771 60.415L36.3227 59.4734L37.5184 60.415L37.0699 58.9273L38.2659 57.9857H36.7701L36.3231 56.498Z" fill="white"/>
<path fill-rule="evenodd" clip-rule="evenodd" d="M17.9384 56.498L18.3869 57.9857H19.9316L18.686 58.9273L19.1846 60.415L17.939 59.4734L16.6934 60.415L17.192 58.9273L15.9453 57.9857H17.4411L17.9384 56.498Z" fill="white"/>
<path fill-rule="evenodd" clip-rule="evenodd" d="M10.663 51.6895L11.1115 53.1771H12.6563L11.4106 54.0691L11.9092 55.5568L10.6636 54.6648L9.41802 55.5568L9.91661 54.0691L8.66992 53.1771H10.2147L10.663 51.6895Z" fill="white"/>
<mask id="mask4_5602_534" style="mask-type:luminance" maskUnits="userSpaceOnUse" x="12" y="19" width="31" height="21">
<path d="M12.406 39.0025H42.1531C42.3524 29.5865 37.3697 19.873 27.2546 19.873C17.1395 19.873 12.1569 29.5865 12.4053 39.0025" fill="white"/>
</mask>
<g mask="url(#mask4_5602_534)">
<path d="M42.3517 19.873H12.1562V39.0025H42.3517V19.873Z" fill="url(#paint4_radial_5602_534)"/>
</g>
<path fill-rule="evenodd" clip-rule="evenodd" d="M12.4073 38.0605H20.7784V38.4075H12.3574V38.3579L12.4073 38.0605Z" fill="#CAA52E"/>
<path fill-rule="evenodd" clip-rule="evenodd" d="M12.457 36.4258L20.7783 38.0612L20.6786 38.4081L12.457 36.7727V36.4258Z" fill="#CAA52E"/>
<path fill-rule="evenodd" clip-rule="evenodd" d="M12.6548 34.7402L20.8274 38.0606L20.6778 38.4075L12.605 35.1367C12.5936 35.0026 12.6106 34.8675 12.6548 34.7402Z" fill="#CAA52E"/>
<path fill-rule="evenodd" clip-rule="evenodd" d="M12.9561 32.9062L20.8288 38.0592L20.6296 38.3566L12.9062 33.3027C12.9062 33.154 12.9561 33.055 12.9561 32.9062Z" fill="#CAA52E"/>
<path fill-rule="evenodd" clip-rule="evenodd" d="M13.504 30.9258L20.8784 38.1117L20.6293 38.3595L13.4043 31.3223L13.504 30.9258Z" fill="#CAA52E"/>
<path fill-rule="evenodd" clip-rule="evenodd" d="M14.4004 28.6445L20.9278 38.1597L20.6289 38.3578L14.2012 29.041L14.4004 28.6445Z" fill="#CAA52E"/>
<path fill-rule="evenodd" clip-rule="evenodd" d="M15.796 26.1172L20.9282 38.1599L20.5794 38.3086L15.5469 26.4641C15.6415 26.3572 15.725 26.2409 15.796 26.1172Z" fill="#CAA52E"/>
<path fill-rule="evenodd" clip-rule="evenodd" d="M17.8868 23.5918L20.9263 38.2114L20.5775 38.261L17.5879 23.8395C17.6993 23.7721 17.8 23.6886 17.8868 23.5918Z" fill="#CAA52E"/>
<path fill-rule="evenodd" clip-rule="evenodd" d="M20.8781 21.4102L20.928 38.26H20.5792L20.5293 21.6083L20.8781 21.4102Z" fill="#CAA52E"/>
<path fill-rule="evenodd" clip-rule="evenodd" d="M24.5146 20.1211L20.9269 38.309L20.5781 38.2594L24.1658 20.2203L24.5146 20.1211Z" fill="#CAA52E"/>
<path fill-rule="evenodd" clip-rule="evenodd" d="M28.5506 19.9219L20.9269 38.3575L20.5781 38.2087L28.2018 19.9219H28.5506Z" fill="#CAA52E"/>
<path fill-rule="evenodd" clip-rule="evenodd" d="M32.6364 20.9117L20.8771 38.3562L20.5781 38.158L32.2876 20.8125L32.6364 20.9117Z" fill="#CAA52E"/>
<path fill-rule="evenodd" clip-rule="evenodd" d="M36.1742 23.193L20.8263 38.4075L20.5781 38.1596L35.926 22.9453L36.1751 23.193" fill="#CAA52E"/>
<path fill-rule="evenodd" clip-rule="evenodd" d="M38.9156 26.4153L20.8281 38.4084L20.6289 38.1111L38.7661 26.0684C38.8068 26.1877 38.8568 26.3037 38.9156 26.4153Z" fill="#CAA52E"/>
<path fill-rule="evenodd" clip-rule="evenodd" d="M40.7095 30.1809L20.7785 38.4572L20.6289 38.1103L40.6098 29.834C40.6657 29.9419 40.6996 30.0598 40.7095 30.1809Z" fill="#CAA52E"/>
<path fill-rule="evenodd" clip-rule="evenodd" d="M41.8049 34.1946L20.7775 38.4567L20.6777 38.1098L41.7551 33.8477L41.8049 34.1946Z" fill="#CAA52E"/>
<path fill-rule="evenodd" clip-rule="evenodd" d="M42.1036 38.259L20.6777 38.408V38.0609L42.1036 37.9121V38.259Z" fill="#CAA52E"/>
<path fill-rule="evenodd" clip-rule="evenodd" d="M20.7271 32.9063C23.7167 32.9063 26.2081 35.285 26.2081 38.2585H15.2461C15.2711 36.8296 15.8597 35.4677 16.8851 34.4665C17.9104 33.4652 19.2902 32.9049 20.7271 32.9063Z" fill="#CAA52E"/>
<path fill-rule="evenodd" clip-rule="evenodd" d="M20.7278 33.353C21.3764 33.3373 22.0217 33.4494 22.6265 33.6831C23.2312 33.9167 23.7835 34.2671 24.2514 34.7141C24.7193 35.1611 25.0936 35.6958 25.3526 36.2874C25.6116 36.8791 25.7502 37.5158 25.7605 38.161H15.6953C15.7325 36.8633 16.2809 35.6321 17.2223 34.7327C18.1636 33.8333 19.4226 33.3378 20.7278 33.353Z" fill="#FACB13"/>
<mask id="mask5_5602_534" style="mask-type:luminance" maskUnits="userSpaceOnUse" x="12" y="38" width="28" height="19">
<path d="M12.3574 38.4078C12.3574 39.1016 12.4073 39.7954 12.4571 40.4892C15.8952 40.5884 20.3299 40.3901 20.4296 41.0343C20.4296 41.1335 20.6288 41.0839 20.7784 41.0343C20.928 40.9847 21.0773 40.9351 20.9776 41.0343C19.3832 42.7688 21.3763 45.7919 23.3188 47.3283C29.497 52.0858 27.2553 54.8115 22.2226 55.8523C23.8133 56.4519 25.5061 56.738 27.2067 56.6946C32.9368 56.6946 36.973 53.622 39.4146 49.3106C35.7274 47.8229 29.4491 47.0803 27.9542 43.8096C27.4556 42.7193 30.4456 40.6874 30.8939 39.7954C31.7907 38.1105 25.9609 38.4574 26.1603 38.3582L12.4571 38.3086C12.5569 38.3086 12.507 38.3582 12.3574 38.4078Z" fill="white"/>
</mask>
<g mask="url(#mask5_5602_534)">
<path d="M39.4625 38.1113H12.4062V56.6957H39.4625V38.1113Z" fill="url(#paint5_linear_5602_534)"/>
</g>
<mask id="mask6_5602_534" style="mask-type:luminance" maskUnits="userSpaceOnUse" x="12" y="38" width="16" height="19">
<path d="M12.3575 38.3075V38.2083C11.6101 42.2721 13.3547 48.5661 17.0412 52.4815C20.0807 55.7029 24.366 57.0905 26.1099 56.8425H26.4587C26.6579 56.8425 26.8075 56.8921 26.8574 56.7434C30.6944 49.6068 16.7922 41.5785 26.6582 38.4069C27.3558 38.2086 26.1099 38.1094 24.067 38.1094C20.6788 38.1094 15.0491 38.3075 12.3575 38.3075Z" fill="white"/>
</mask>
<g mask="url(#mask6_5602_534)">
<path d="M30.7431 38.1094H11.6094V57.0903H30.7431V38.1094Z" fill="url(#paint6_linear_5602_534)"/>
</g>
<mask id="mask7_5602_534" style="mask-type:luminance" maskUnits="userSpaceOnUse" x="27" y="29" width="16" height="10">
<path d="M40.3098 29.7859C36.8219 29.8355 37.1208 33.8993 34.6793 34.147C34.0814 34.1966 32.6862 33.7505 31.6897 33.5523C30.3443 33.354 27.7033 36.5258 27.1055 38.2107H42.1035C42.1126 35.3159 41.5891 32.4438 40.5589 29.7363C40.4843 29.7813 40.3962 29.7989 40.3098 29.7859Z" fill="white"/>
</mask>
<g mask="url(#mask7_5602_534)">
<path d="M42.1035 29.7852H27.1055V38.2596H42.1035V29.7852Z" fill="url(#paint7_linear_5602_534)"/>
</g>
<path fill-rule="evenodd" clip-rule="evenodd" d="M18.5356 48.8657C16.5426 44.8513 17.5889 42.4229 20.3295 40.8867C19.0838 43.0674 20.9273 44.9505 23.5185 46.9823C21.7688 47.264 20.0923 47.8868 18.5855 48.815L18.5356 48.8657Z" fill="white"/>
<mask id="mask8_5602_534" style="mask-type:luminance" maskUnits="userSpaceOnUse" x="25" y="38" width="18" height="14">
<path d="M28.1519 46.5345C30.5935 49.0621 35.078 49.409 38.3665 51.0939C40.858 47.724 42.1036 43.1646 42.1534 38.6547V38.506L27.2053 38.3574C25.8101 40.4389 25.0626 43.3133 28.1519 46.5345Z" fill="white"/>
</mask>
<g mask="url(#mask8_5602_534)">
<path d="M42.1034 38.3086H25.0625V51.0947H42.1034V38.3086Z" fill="url(#paint8_linear_5602_534)"/>
</g>
<mask id="mask9_5602_534" style="mask-type:luminance" maskUnits="userSpaceOnUse" x="34" y="34" width="9" height="5">
<path d="M38.8166 34.2949C37.5708 34.4437 36.674 36.4756 34.2324 38.0118H42.155C42.1484 36.9336 42.0653 35.8573 41.9064 34.7908C41.1589 34.6916 39.9632 34.3943 39.116 34.2949H38.8166Z" fill="white"/>
</mask>
<g mask="url(#mask9_5602_534)">
<path d="M42.155 34.2949H34.2324V38.0118H42.155V34.2949Z" fill="url(#paint9_linear_5602_534)"/>
</g>
<path d="M21.6747 28.3457H19.6816V29.3864H21.6747V28.3457Z" fill="#FACB13"/>
<path fill-rule="evenodd" clip-rule="evenodd" d="M27.9043 26.1172C29.1839 26.0143 30.4713 26.1659 31.6912 26.5633C32.6379 26.9102 32.9867 26.9102 33.8837 27.7032L32.5883 28.5458C31.2427 27.0588 29.5985 26.8119 27.9043 26.316C27.1569 26.0683 27.1569 26.1179 27.9043 26.1179" fill="white"/>
<path fill-rule="evenodd" clip-rule="evenodd" d="M33.2848 27.6541C34.3312 27.7532 35.5768 26.9106 36.0751 26.8115C36.2744 26.7619 36.5737 27.1088 36.4239 27.208C36.1565 27.3696 35.8726 27.5025 35.577 27.6045C35.8792 27.4427 36.1962 27.3099 36.5237 27.208C36.7727 27.2576 36.9223 27.6541 36.8226 27.753C36.4474 27.8356 36.0805 27.9517 35.7264 28.0999C36.0816 27.9549 36.4482 27.8389 36.8224 27.7532C36.972 27.7532 37.1213 28.1993 36.9221 28.2983C36.3238 28.6948 35.5768 28.6948 34.9798 28.9434C35.2288 29.8353 35.8269 30.9257 35.7771 31.8672C35.7272 33.3549 34.9299 34.7417 34.6808 36.1293C34.5811 36.6744 34.631 36.8231 34.5313 36.1789C34.2323 34.3948 34.0827 31.1736 33.2358 29.9841C32.6525 29.5312 31.9329 29.2868 31.1929 29.2903C30.9438 29.3399 30.3956 29.4884 30.1465 29.538C30.2462 29.0919 30.5451 27.9026 31.3921 28.0016L33.2848 27.6541Z" fill="white"/>
<path fill-rule="evenodd" clip-rule="evenodd" d="M33.6846 43.4121L33.6348 43.908L34.2825 44.3541V43.8086L33.6846 43.4121ZM33.4355 51.8369V52.3328L33.4854 52.3824H34.1331L33.4355 51.8369ZM33.4355 50.8954V51.3913L34.5318 52.2336V51.7377L33.4355 50.8954ZM33.4854 49.9538V50.4497L34.5817 51.2427V50.7468L33.4854 49.9538ZM33.4854 49.0123L33.4355 49.5082L34.4327 50.2516V49.7065L33.4854 49.0123ZM33.5353 48.0707V48.5666L34.4819 49.2604V48.7645L33.5353 48.0707ZM33.5851 47.1292V47.6251L34.4819 48.2693V47.7242L33.5851 47.1292ZM33.5851 46.1876V46.6835L34.3824 47.2781V46.7324L33.5851 46.1876ZM33.635 45.2461L33.5851 45.742L34.3326 46.287V45.7407L33.635 45.2461ZM33.6848 44.3045L33.635 44.8004L34.3326 45.2963L34.2827 44.7512L33.6848 44.3045Z" fill="#AB9276"/>
<mask id="mask10_5602_534" style="mask-type:luminance" maskUnits="userSpaceOnUse" x="18" y="31" width="5" height="8">
<path d="M18.5352 31.4688V38.0601H22.9698L22.9199 31.4688H18.5352Z" fill="white"/>
</mask>
<g mask="url(#mask10_5602_534)">
<path d="M22.9199 31.4688H18.5352V38.0601H22.9199V31.4688Z" fill="url(#paint10_linear_5602_534)"/>
</g>
<mask id="mask11_5602_534" style="mask-type:luminance" maskUnits="userSpaceOnUse" x="19" y="26" width="4" height="6">
<path d="M20.729 26.5648C20.4799 26.5648 20.3303 26.9117 20.1311 27.1595C19.9815 27.3082 19.882 27.4568 19.7324 27.6056V30.2817L19.8321 30.4304L19.7823 31.372H21.6756L21.6258 30.3802L22.0244 30.281L21.9746 29.3395L21.9247 27.8033C21.6947 27.568 21.4785 27.3197 21.277 27.0599C21.0279 26.8121 21.1274 26.5148 20.729 26.564V26.5648Z" fill="white"/>
</mask>
<g mask="url(#mask11_5602_534)">
<path d="M21.9238 26.5156H19.6816V31.3228H21.9238V26.5156Z" fill="url(#paint11_linear_5602_534)"/>
</g>
<path d="M21.5751 28.3965H19.7812V29.2391H21.5751V28.3965Z" fill="#FACB13"/>
<path fill-rule="evenodd" clip-rule="evenodd" d="M20.1796 6.14496C20.9271 6.19455 21.5748 6.64086 21.525 7.23528C21.4751 7.82971 21.1263 10.6052 21.1263 10.6052L18.1367 10.8034L18.6847 6.98712C18.6847 7.03671 19.4322 6.14453 20.1805 6.14453" fill="#EAD7B1"/>
<path d="M19.4317 7.38455C19.332 8.42528 19.1827 9.06951 19.1328 10.1109C19.6314 10.0613 20.0296 10.0613 20.4283 10.0117C20.528 9.01992 20.6774 8.27716 20.7771 7.28602C20.528 6.74096 19.8304 6.79012 19.4317 7.38519" fill="#6E4E32"/>
<path d="M35.3279 10.1091C35.2281 9.11733 35.1286 8.37457 35.0289 7.38342C34.6303 6.78878 33.9327 6.6896 33.6836 7.28425C33.7833 8.27603 33.8828 9.0188 34.0324 10.0099C34.4613 10.0735 34.8942 10.1066 35.3279 10.1091Z" fill="#6E4E32"/>
<path d="M29.1998 11.7957V11.3992C29.1001 10.1108 29.0006 8.0293 27.3572 8.0293C25.7138 8.0293 25.6622 10.1604 25.5625 11.4488V11.7461L29.1998 11.7957Z" fill="#6E4E32"/>
<path d="M27.356 7.53286C29.4987 7.53286 29.5485 10.0604 29.6972 11.6462V11.795H30.0963V11.6958L29.9467 10.3577H30.9439L31.0935 11.6958L31.1434 11.795H31.542V11.6958L31.3924 10.3577L33.1364 10.4073L33.1863 10.9524L33.9836 11.002C34.4321 11.0516 34.8804 11.0516 35.2791 11.1011L36.475 11.2003L36.4252 10.6057C37.1726 10.6553 37.9209 10.7049 38.6673 10.8038L39.0161 12.2411L39.0659 12.4888H39.4646L39.4147 12.1419L39.1158 10.903L41.8563 11.2499L42.4542 12.588L42.504 12.7367L42.5539 12.8359L43.0525 12.8855V12.7855L40.0629 5.99601L41.1093 6.14478L42.2055 5.20323L43.0029 3.46868C43.0941 2.81186 43.1108 2.14692 43.0527 1.48639C42.4548 1.38721 39.0167 0.69339 38.7172 0.69339L36.1756 1.83265V0.3965L31.8904 0.0495895L30.3946 1.43723H29.4479V0H25.1638V1.43723L24.2669 1.48682L22.772 0.0991789L18.4365 0.44609V1.83265L15.9953 0.743411C15.6964 0.693821 12.3082 1.38764 11.7103 1.48768C11.7103 1.88418 11.6106 3.17265 11.7602 3.46997C12.7573 5.50184 12.0092 4.75843 13.8031 6.0469L14.6502 5.94772L11.7103 12.7855V12.9342L12.1588 12.8846L12.2087 12.7855L12.9058 11.2001L15.6463 10.8532L15.2477 12.3409V12.6878H15.5965L15.7461 11.994L16.045 10.8541C16.7426 10.8045 17.3903 10.7053 18.0879 10.6559L18.038 11.201L19.1842 11.1018C19.6327 11.0522 20.081 11.0522 20.4796 11.0026L21.2271 10.9034L21.2769 10.4075C21.9247 10.3579 22.6223 10.3579 23.27 10.3084L23.1703 11.3987L23.1204 11.8946H23.5193V11.6964L23.6689 10.3088L24.666 10.2592L24.7159 9.8627L21.4274 10.0608L21.6266 8.6732L25.2639 8.52443C24.9125 9.47921 24.7108 10.4821 24.666 11.4979L24.5663 11.8944H24.965V11.6962C25.1642 10.1104 25.2639 7.53329 27.3567 7.53329M33.0363 6.49255C31.1937 6.39338 29.3989 6.34379 27.5553 6.34379V4.95593C29.648 4.95593 31.7408 5.05511 33.8336 5.20366L33.9333 5.94707L33.7837 5.99666C33.4872 6.07727 33.225 6.25126 33.0363 6.49255ZM32.6875 7.43411C32.7373 7.73143 32.7373 7.97916 32.7872 8.22711L31.0935 8.17709L30.9938 6.73985C31.5917 6.73985 32.1895 6.78944 32.7876 6.83903L32.7378 6.93821L32.638 7.18594L32.6875 7.43411ZM35.2784 10.6059C34.8299 10.5563 34.3816 10.5563 33.9829 10.5067L33.5843 10.4571L33.5344 10.0606C33.4347 9.16866 33.2853 8.22797 33.1856 7.33493V7.18616L33.2355 7.08698C33.3075 6.93337 33.4114 6.7966 33.5401 6.6856C33.6689 6.57459 33.8198 6.49184 33.9829 6.44275C34.2672 6.38159 34.564 6.41664 34.8259 6.54234C35.0879 6.66804 35.3002 6.87718 35.4291 7.13657L35.4789 7.23575V7.33493C35.5786 8.22689 35.728 9.16758 35.7779 10.0606L35.8277 10.6553L35.2784 10.6059ZM35.976 7.33514L35.9261 7.137C36.524 7.18659 37.1219 7.23618 37.6701 7.33514L38.0189 8.72279C37.3712 8.6732 36.7234 8.62361 36.0757 8.52464C36.0693 8.12637 36.036 7.72897 35.976 7.33514ZM41.6556 10.7547H41.6057C39.8617 10.5069 38.1178 10.3582 36.3738 10.2096V10.0608L36.2242 8.87134C37.8186 9.02011 39.4631 9.16866 41.0584 9.41639L41.6556 10.7547ZM40.8583 9.02011H40.8084L38.5164 8.72279L38.1676 7.33514L40.2604 7.58288L40.8583 9.02011ZM40.061 7.18745H40.0111L35.7271 6.73985C35.3934 6.32692 34.9106 6.06013 34.3818 5.99644L34.2322 5.25303C35.9762 5.4018 37.7202 5.59994 39.4132 5.84768L40.061 7.18745ZM38.6669 1.23887V2.13105C38.1683 2.08146 37.6205 1.98228 37.1221 1.88332L38.6669 1.23887ZM31.9402 0.644232V1.48768H31.0434L31.9402 0.644232ZM22.772 0.644232L23.6689 1.48768L22.772 1.53727V0.644232ZM15.9953 1.28846L17.5897 1.98228L15.9953 2.18043V1.28846ZM12.7068 4.31213C12.0092 2.97407 12.1588 3.46954 12.1588 1.88375C13.3047 1.68496 14.4016 1.48768 15.547 1.28846V2.67611C16.6932 2.52734 17.7892 2.37878 18.9353 2.27961V0.84259C20.0814 0.743411 21.1774 0.644447 22.3235 0.594858V2.03187C23.4198 1.98228 24.516 1.9327 25.6619 1.88311V0.44609H29.0502V1.88311C30.1963 1.88311 31.2923 1.9327 32.4384 1.98228V0.545053C33.5845 0.594642 34.6807 0.693821 35.8266 0.792785V2.23002C36.9229 2.3292 38.0688 2.47775 39.2149 2.62652V1.28846C40.3111 1.48661 41.457 1.68496 42.6031 1.88311C42.6031 3.51848 42.7527 2.92384 42.0052 4.36107C37.0162 3.53043 31.966 3.11603 26.9075 3.1222C22.1511 3.17385 17.4049 3.57155 12.7068 4.31213ZM13.9524 5.551C13.5662 5.29805 13.1997 5.01638 12.8562 4.70841C22.4625 3.15548 32.2605 3.18899 41.8559 4.80759L40.9092 5.64889L35.9762 4.95507C28.6395 4.21012 21.2368 4.40998 13.9516 5.54971M15.1475 5.89662C16.8915 5.64889 18.6853 5.45053 20.4293 5.30198L20.2797 5.94621C19.9705 5.94722 19.6657 6.01932 19.3891 6.15689C19.1125 6.29445 18.8717 6.49375 18.6853 6.73921L14.5505 7.18594L15.1475 5.89662ZM14.4016 7.58244L16.4944 7.33471L16.1456 8.77195L13.7532 9.06905L14.4016 7.58244ZM18.138 10.0604V10.2586C16.4439 10.4073 14.7497 10.5559 13.0556 10.8036L13.6535 9.41596C15.1983 9.21782 16.7428 9.01946 18.2876 8.92007C18.192 9.29271 18.1418 9.67542 18.138 10.06M18.4369 7.33428L18.2873 8.52378L16.5434 8.67255L16.942 7.23532L18.4378 7.08655L18.4369 7.33428ZM21.2767 7.38387C21.177 8.32542 21.0276 9.21653 20.9279 10.1096L20.8781 10.5061L20.4295 10.5557C19.981 10.6052 19.5327 10.6052 19.1341 10.6548L18.5362 10.7044L18.5861 10.1098C18.6858 9.21782 18.8351 8.27713 18.885 7.38409V7.28491L18.9349 7.18573C19.0787 6.92794 19.3009 6.722 19.5695 6.59739C19.8382 6.47277 20.1396 6.43585 20.4306 6.49191C20.7481 6.58586 21.0162 6.79917 21.1781 7.08655L21.2279 7.18573L21.2767 7.38387ZM21.3764 6.49191C21.1918 6.26843 20.9512 6.09738 20.6788 5.99601L20.8284 5.20301C22.9212 5.05424 25.0638 4.95528 27.1566 4.95528V6.29333C25.2633 6.29333 23.3196 6.34292 21.3766 6.49148M23.5193 8.22603C22.8715 8.22603 22.2737 8.27562 21.6259 8.32521C21.6809 8.04731 21.7142 7.76561 21.7257 7.48262L21.7755 7.23489L21.6758 6.93757L21.6259 6.88798C22.2737 6.83839 22.9713 6.83839 23.619 6.7888L23.5193 8.22603ZM23.9179 8.22603L24.0177 6.7888C26.2101 6.73921 28.4024 6.68962 30.5949 6.7888L30.7445 8.17644L29.2487 8.12685C29.3442 8.24246 29.4123 8.37798 29.4479 8.52335L32.8362 8.67212L33.0354 10.0598L29.8962 9.91099V10.0598C29.6482 8.57359 29.0991 7.13657 27.3062 7.13657C26.9302 7.11821 26.5562 7.20055 26.2232 7.37501C25.8901 7.54946 25.6103 7.80963 25.4128 8.12836L23.9179 8.22603Z" fill="#6E4E32"/>
<path d="M21.3257 33.8008H20.2793V34.7919H21.3257V33.8008Z" fill="#405965"/>
<path d="M22.7723 49.4081C22.8449 49.3621 22.8962 49.2893 22.9149 49.2056C22.9336 49.122 22.9182 49.0344 22.872 48.9621C22.872 48.9125 22.8222 48.9125 22.7723 48.8629H21.9254V48.367C21.9218 48.3156 21.8997 48.2672 21.8631 48.2308C21.8264 48.1944 21.7778 48.1724 21.7261 48.1688H21.2765C21.2249 48.1724 21.1762 48.1944 21.1396 48.2308C21.103 48.2672 21.0809 48.3156 21.0773 48.367V48.8629H19.135C20.4826 48.111 21.9485 47.5915 23.4705 47.3265L24.2679 47.1777L23.6201 46.6818C22.474 45.7898 20.3812 44.2038 20.2319 42.6181C20.1985 42.1148 20.3202 41.6135 20.5807 41.1808L21.2765 39.9922L20.0309 40.6364C16.5928 42.5197 16.543 45.6913 18.1376 48.8631H17.639V48.5658H16.9924V48.8631H16.2451C16.0459 49.0119 16.0459 49.21 16.2451 49.4081C18.4027 49.8046 20.615 49.8046 22.7725 49.4081M20.2312 40.984C18.9856 43.1646 20.7792 44.9485 23.4203 46.9804C21.6992 47.254 20.0535 47.8779 18.5861 48.8131C16.6928 45.0466 17.4899 42.4697 20.2304 40.9829" fill="#405965"/>
<path d="M31.4414 28.4453C31.3417 28.4453 31.2422 28.4949 31.2422 28.5941C31.2422 28.6933 31.292 28.7922 31.3918 28.7922C31.4915 28.7922 31.591 28.7426 31.591 28.6435C31.591 28.5443 31.5411 28.4947 31.4414 28.4453Z" fill="#405965"/>
<path d="M49.5275 30.0827C49.8763 27.2082 51.9192 25.2259 54.311 23.6897L54.7595 23.442L46.7372 13.3818L46.5876 13.3322C45.6409 13.1341 44.6943 12.9853 43.7478 12.8363C40.8577 12.4398 38.7649 12.1921 36.9713 11.9937L35.4756 11.8945H35.4257L34.9772 11.8449H34.778L31.4894 11.6962H30.742C26.706 11.597 23.1682 11.7458 20.6269 11.8943C19.7301 11.9439 14.0995 12.489 13.0531 12.6377H12.9038C11.6083 12.8359 8.96729 13.2324 8.02062 13.3811L0.0488281 23.442L0.497342 23.6897C2.88862 25.1755 4.93197 27.2084 5.28077 30.0827C5.62956 32.9569 3.9853 36.2274 2.88905 38.805C1.44401 42.273 0.0986871 45.6936 0.0986871 49.5097C0.092204 50.3319 0.209778 51.1505 0.447483 51.938C1.24479 54.4656 3.18799 56.4975 5.28163 58.1328C7.77621 59.9767 10.427 61.6017 13.2042 62.9896C16.044 64.4773 18.9343 65.9134 21.6748 67.549C23.5174 68.6393 25.9102 70.2747 26.9068 72.1578L27.3054 72.9508L27.7041 72.1578C28.7012 70.2747 31.1422 68.6391 32.936 67.549C35.6765 65.9136 38.5666 64.4764 41.4066 62.9896C44.1838 61.6017 46.8346 59.9767 49.3292 58.1328C51.422 56.4975 53.3652 54.4656 54.1633 51.938C54.4045 51.1512 54.5221 50.3321 54.5121 49.5097C54.5121 45.6934 53.1668 42.2741 51.7218 38.805C50.7246 36.2281 49.1805 32.9571 49.5293 30.0827M27.3544 71.9594C23.5176 64.6745 0.547418 60.4124 0.547418 49.5097C0.547418 38.6069 12.1572 30.5794 0.696994 23.2934L8.22136 13.7781C21.7246 11.4984 34.4805 11.4984 46.489 13.7781L54.012 23.2932C42.5516 30.5783 54.1117 38.6067 54.1117 49.5094C54.1117 60.4122 31.1909 64.7239 27.3544 71.9594Z" fill="#405965"/>
<path fill-rule="evenodd" clip-rule="evenodd" d="M15.9941 2.17983L17.6883 1.98169L15.9941 1.23828V2.17983Z" fill="#EAD7B1"/>
<path d="M49.6789 39.6477C48.4333 36.6247 46.8885 33.1556 47.2872 29.8352C47.5861 27.1095 49.081 24.9785 51.1738 23.2439L51.5226 22.9466L45.4437 15.4138L45.2941 15.3642C33.3854 13.2331 21.2773 13.4811 9.36839 15.3642L9.16917 15.4138L3.18978 22.9466L3.48893 23.245C5.58171 24.9796 7.07661 27.1106 7.37555 29.8363C7.7742 33.2062 6.22944 36.6258 4.93398 39.6488C3.63829 42.8195 2.29297 46.0406 2.29297 49.5097C2.29889 50.0963 2.38264 50.6795 2.54205 51.2443C3.88737 55.5564 10.3649 58.9753 14.2017 61.0072C17.0918 62.5436 20.0315 63.931 22.772 65.6162C24.253 66.4773 25.6392 67.4905 26.9077 68.6392L27.2565 68.9365L27.5554 68.6392C28.8145 67.4791 30.202 66.465 31.6911 65.6162C34.4815 63.9312 37.4212 62.494 40.2614 61.0072C44.3971 58.8265 52.1701 54.8124 52.1701 49.5097C52.3197 46.0406 50.9744 42.8195 49.6789 39.6477ZM40.1621 60.6109C37.272 62.1471 34.3323 63.5843 31.542 65.2693C30.0439 66.1471 28.6413 67.1768 27.3564 68.3419C26.0715 67.1768 24.6689 66.1471 23.1709 65.2693C20.3805 63.5843 17.4408 62.1471 14.5507 60.6109C10.9134 58.6782 4.38596 55.2587 3.09028 51.0957C2.93455 50.564 2.85079 50.0141 2.8412 49.4604C2.8412 46.0409 4.13667 42.8691 5.43213 39.7469C6.7276 36.6247 8.27192 33.1556 7.8737 29.6865C7.52491 26.8122 5.93029 24.5818 3.78874 22.7978L6.97667 18.7837L14.9491 26.6139C9.91662 34.9893 11.1121 48.469 18.6862 54.3169C21.1594 56.2353 24.2203 57.2502 27.3562 57.1914C32.8372 57.1914 36.8727 54.5153 39.4145 50.6001L46.0912 57.1914C44.1782 58.4368 42.1992 59.5783 40.1621 60.6109ZM28.7015 20.0226H28.8511C29.9214 20.1297 30.9751 20.3626 31.9902 20.7164L32.2892 20.8156H32.339L32.6878 20.9643L32.7377 21.0139L32.8374 21.0635L32.9371 21.1131C33.9225 21.5493 34.8441 22.116 35.6768 22.7978L36.2248 23.2439L36.3744 23.3927L36.4242 23.4423C37.2645 24.2354 38.0164 25.1162 38.667 26.0695L38.7169 26.119C38.7667 26.2182 38.8664 26.3172 38.9161 26.4164L38.8164 26.2676L38.9161 26.3668V26.4164C39.5127 27.3382 40.0139 28.3178 40.4119 29.3402H40.3121C39.6535 29.3435 39.0074 29.5192 38.4388 29.8498C37.8702 30.1804 37.3992 30.6541 37.0733 31.2233C37.0733 31.2729 36.874 31.5702 36.7743 31.7684C36.5252 32.2144 36.2263 32.6603 35.9272 33.1064L36.0767 32.363C36.072 32.2453 36.0889 32.1277 36.1266 32.0161C36.1524 31.8852 36.1524 31.7505 36.1266 31.6196C36.1266 30.7276 35.6781 29.9346 35.429 29.1416C36.0155 29.0353 36.5851 28.852 37.1231 28.5966C37.2681 28.4779 37.3599 28.307 37.3786 28.1211C37.3973 27.9353 37.3413 27.7497 37.2228 27.6048C37.2111 27.5213 37.1945 27.4386 37.173 27.3571C37.173 27.3075 37.0733 27.2083 37.0733 27.1589C37.017 27.053 36.93 26.9664 36.8235 26.9103C36.7561 26.7609 36.6423 26.6369 36.4988 26.5566C36.3552 26.4764 36.1896 26.444 36.0262 26.4642C35.7273 26.5634 35.4782 26.6624 35.2289 26.7615C34.9572 26.9294 34.6741 27.0785 34.3817 27.2076C34.282 27.2572 34.1825 27.2572 34.0828 27.3068C33.7191 27.0468 33.336 26.8148 32.9367 26.613C32.837 26.5634 32.6876 26.5138 32.4381 26.4149L31.9896 26.2661C31.1887 25.9778 30.3489 25.8107 29.4982 25.7702C29.1992 25.7702 28.9502 25.7206 28.5515 25.7206H28.103C27.8041 25.7206 27.2062 25.671 27.1563 26.0675C27.1065 26.464 27.6549 26.5634 27.9536 26.6622H28.0035L28.8507 26.8603C29.6629 27.0446 30.4492 27.3276 31.1919 27.7029C30.9799 27.7456 30.7821 27.8406 30.6167 27.9792C30.4513 28.1177 30.3236 28.2954 30.2452 28.4959L30.1455 28.7436C30.0559 28.9847 29.9892 29.2336 29.9463 29.487L29.8465 29.9829L30.4444 29.8342C30.6935 29.7846 30.9924 29.735 31.2417 29.6854C31.5143 29.6867 31.7845 29.7371 32.039 29.8342C32.2466 29.8954 32.447 29.9784 32.6369 30.0819H32.6868C32.8362 30.1345 32.9723 30.2191 33.0854 30.3296V30.3792C33.3832 31.1101 33.5842 31.8764 33.6833 32.6588V32.7084C33.6833 32.8076 33.7331 32.9065 33.7331 33.0553C33.7331 33.2041 33.783 33.3526 33.783 33.4518V33.65C33.5838 33.6004 33.3345 33.5508 33.1851 33.5012L33.0356 33.4516H32.9857L32.1884 33.2535L31.7897 33.1543C31.1711 33.1607 30.5801 33.4101 30.1455 33.8481C29.9959 33.9473 29.8465 34.0958 29.697 34.195C29.3401 34.5003 29.0068 34.8319 28.6998 35.1868C28.6382 35.2432 28.5875 35.3104 28.5502 35.3849C28.3011 35.6823 28.1017 35.9796 27.8526 36.2769L27.5537 36.723C27.4652 36.8947 27.3653 37.0604 27.2547 37.2189C27.1187 37.4398 27.002 37.6719 26.9059 37.9127H23.3204V31.272H21.925L21.8752 30.479H22.2738V28.9914H21.925V28.5468H22.224V28.0509C22.2203 27.8283 22.1461 27.6126 22.0118 27.4345C21.8776 27.2564 21.6903 27.125 21.4765 27.0591V26.9103C21.4736 26.764 21.4236 26.6225 21.3338 26.5066C21.2441 26.3906 21.1194 26.3063 20.9779 26.2661C20.9281 26.2661 20.8284 26.2165 20.7787 26.2165H20.6291C20.4787 26.2478 20.343 26.3282 20.2438 26.4449C20.1445 26.5616 20.0872 26.708 20.0811 26.8607V27.0095C19.8784 27.0864 19.7035 27.222 19.5792 27.3988C19.4548 27.5756 19.3866 27.7855 19.3835 28.0013V28.4972H19.6825V28.9433H19.3837V30.431H19.8323L19.7824 31.224H18.3872V37.8646H12.5075V37.2204C12.5075 36.8735 12.5574 36.7743 12.5574 36.3284V35.9815C12.5879 35.4134 12.6713 34.8493 12.8065 34.2966C12.8065 34.1974 12.8563 34.0488 12.8563 33.9496C12.9561 33.4046 13.0556 33.0081 13.1054 32.6116C13.1553 32.4135 13.2051 32.2647 13.255 32.0665V32.017C13.3049 31.8188 13.3547 31.6205 13.4542 31.3231L13.7532 30.4312C13.8227 30.2115 13.9059 29.9963 14.0022 29.7869V29.7373C14.1546 29.2957 14.3377 28.8652 14.5502 28.4489L14.6001 28.3497C14.8996 27.6957 15.2494 27.0657 15.6465 26.4653C15.9503 25.9831 16.2833 25.5197 16.6437 25.0777L16.8429 24.8299L16.8927 24.7803C17.2549 24.2882 17.6729 23.8392 18.1384 23.4423L18.1882 23.3927C18.7958 22.8116 19.4639 22.2965 20.1813 21.8563H20.2311C20.4954 21.6622 20.7794 21.496 21.0783 21.3604C21.1332 21.3082 21.2026 21.2736 21.2775 21.2612C22.0403 20.867 22.8418 20.5515 23.6692 20.3197H23.7191C24.0619 20.2137 24.4115 20.131 24.7655 20.0719C25.654 19.9158 26.5539 19.8329 27.4561 19.8242H28.2036L28.4028 19.8738C28.4028 19.973 28.5522 19.973 28.7015 20.0226ZM12.5084 38.3096H26.6588C26.2189 38.4532 25.7865 38.6188 25.3633 38.8055L25.2636 38.8551L24.9148 39.0533C24.8151 39.1029 24.6658 39.202 24.566 39.2514C24.1012 39.5052 23.7129 39.8779 23.4413 40.3309C23.1698 40.784 23.0247 41.3009 23.0213 41.8283C23.0386 42.3129 23.1054 42.7944 23.2205 43.2656L23.2704 43.4143C23.3226 43.6008 23.3892 43.7831 23.4696 43.9594C23.7187 44.554 23.9682 45.0993 24.2669 45.6939L24.9146 46.8834C25.8613 48.6676 26.9077 50.5011 27.3562 52.434C27.6556 53.596 27.6036 54.82 27.2066 55.9527C27.1568 56.1015 27.1069 56.2004 27.057 56.3492C27.0174 56.4531 26.9673 56.5527 26.9075 56.6465C26.5587 56.6465 26.16 56.5969 25.8112 56.5969C23.831 56.4004 21.9221 55.7563 20.2305 54.7138C14.7495 51.2943 12.3578 44.3561 12.5071 38.3101L12.5084 38.3096ZM19.883 32.2636V31.6687H20.4806V32.2634H21.0785V31.6687H21.6764V32.2634H22.2743V31.6687H22.8717V32.9572H18.6862V31.6687H19.284V32.2634L19.883 32.2636ZM20.7798 27.3573C21.3278 27.3573 21.777 27.7042 21.777 28.1007V28.1999H19.7325V28.1007C19.7824 27.6546 20.2311 27.3573 20.7789 27.3573M20.4301 26.9608C20.4301 26.8819 20.4616 26.8063 20.5177 26.7505C20.5738 26.6948 20.6498 26.6634 20.7291 26.6634C20.8084 26.6634 20.8844 26.6948 20.9405 26.7505C20.9965 26.8063 21.028 26.8819 21.028 26.9608V27.0104H20.7291C20.6269 27.0025 20.5243 27.0195 20.4301 27.0599V26.9608ZM21.4765 28.5466V28.9926H20.9792V28.5468L21.4765 28.5466ZM20.5797 29.0424H20.0811V28.5961H20.5797V29.0424ZM21.8752 30.1328H19.7325V29.3898H21.925L21.8752 30.1328ZM21.4765 31.2727H20.0813L20.1312 30.4797H21.4267L21.4765 31.2727ZM22.8717 35.1379H18.6862V33.3537H22.9216L22.8717 35.1379ZM22.8717 35.5344V37.8629H21.3261V36.5744C21.3512 36.4304 21.318 36.2824 21.2339 36.1625C21.1497 36.0427 21.0213 35.9608 20.8767 35.9347C20.7322 35.9085 20.583 35.9403 20.4619 36.023C20.3407 36.1057 20.2573 36.2327 20.2298 36.3763V37.864H18.6862V35.5346L22.8717 35.5344ZM27.3063 56.6461C28.6018 53.97 27.6053 51.2443 26.3092 48.6672C25.5617 47.1795 24.7148 45.7433 24.1167 44.405C23.718 43.5131 23.3194 42.3732 23.4689 41.382C23.5225 41.021 23.6524 40.6754 23.8499 40.3679C24.0475 40.0604 24.3082 39.798 24.615 39.5979C25.1204 39.2846 25.6542 39.0191 26.2094 38.8049L26.2593 38.7553L26.5084 38.6561C25.0126 41.4806 25.5617 44.2067 27.9036 46.6844C29.2489 48.0721 31.1424 48.8155 33.1355 49.4597L33.0358 52.5819H34.8313V52.285C34.8313 51.5416 34.7815 50.7486 34.7815 50.0054C35.9245 50.353 37.0403 50.7837 38.1199 51.2939C36.895 52.9974 35.2688 54.3762 33.3837 55.3093C31.4986 56.2424 29.4121 56.7014 27.3072 56.6461H27.3063ZM34.7305 44.2565L35.3284 44.8511L35.5276 44.653L34.8799 43.9592C35.3696 44.2068 35.7958 44.5628 36.1255 44.9999V45.198L35.9759 46.5361L35.2783 45.8423L35.1786 45.7927L35.1288 45.6935C35.0726 45.1966 34.9385 44.7118 34.7305 44.2565ZM34.9792 45.9412L34.6803 46.5855C34.6803 45.9908 34.6304 45.396 34.6304 44.8013C34.7594 45.1562 34.8594 45.5208 34.9293 45.8917L34.9792 45.9412ZM35.328 43.8598L35.9259 44.0579L36.0256 43.7606L35.2781 43.5129C35.6344 43.5308 35.9865 43.5974 36.3245 43.711L36.3744 43.7606L36.4242 43.8102L37.1717 45.0987L36.5239 44.9499C36.188 44.5238 35.7839 44.1557 35.328 43.8598ZM36.5242 43.4135H36.4244C36.0412 43.2756 35.6359 43.2085 35.2285 43.2153L36.0757 43.0666L36.0258 42.7692L35.0286 42.918L35.9254 42.4719L36.0251 42.4223H36.1249L37.5699 42.6701L36.5242 43.4135ZM36.3249 40.6382L35.9761 40.787L36.3748 40.4896L36.3249 40.6382ZM36.2252 41.0347L35.9263 42.1746V42.2242H35.8764C35.4085 42.4159 34.9583 42.6481 34.5311 42.918L35.5283 41.8277L35.2792 41.6295L34.432 42.6213C34.5778 42.2651 34.7443 41.9176 34.9306 41.5806L34.9805 41.531H35.0303L36.2252 41.0347ZM33.4349 51.442V50.9959L34.5311 51.7889V52.2848L33.4349 51.442ZM34.1324 52.4338H33.4349L33.385 52.3842V51.8883L34.1324 52.4338ZM34.3317 44.9009V45.3968L33.6341 44.9009V44.405L34.3317 44.9009ZM33.6839 43.9092V43.4631L34.2818 43.8596V44.3555L33.6839 43.9092ZM34.3815 45.8418V46.3377L33.6341 45.7431V45.2472L34.3815 45.8418ZM34.3815 46.8336V47.3295L33.5842 46.7349V46.2888L34.3815 46.8336ZM34.4314 47.8254V48.3213L33.5842 47.6771V47.231L34.4314 47.8254ZM34.4314 48.8172V49.3131L33.4847 48.6193V48.1732L34.4314 48.8172ZM34.4812 49.809V50.3036L33.4841 49.5602V49.1141L34.4812 49.809ZM34.5311 50.8008V51.2967L33.4847 50.5037V50.0576L34.5311 50.8008ZM34.6308 41.4838C34.4319 41.7719 34.2805 42.0898 34.1823 42.4254V41.2358H33.8834V42.5739C33.745 42.1499 33.5435 41.7489 33.2855 41.3844V41.2852L33.9831 39.9472L34.6807 41.2852V41.3348L34.6308 41.4838ZM33.4847 42.6237L32.6376 41.7811L32.4383 41.9793L33.5844 43.1192C33.1331 42.7624 32.6284 42.4781 32.0887 42.2766L32.0388 42.227L31.7399 41.0375L32.886 41.5334L32.9857 41.583L33.0356 41.6326C33.1851 41.9299 33.3345 42.2768 33.4841 42.6244M31.5907 40.6421L31.5409 40.4933L31.9395 40.7906L31.5907 40.6421ZM31.7403 42.5748H31.9395L32.8363 42.9713L31.9892 42.7731L31.8894 43.0704L32.7366 43.2192C32.3314 43.2368 31.9298 43.3033 31.5407 43.4174H31.4409L30.3945 42.7235L31.7403 42.5748ZM31.5411 43.8632L31.5909 43.8136L31.6408 43.7641C31.9846 43.6742 32.3342 43.608 32.6872 43.5659L31.8899 43.8136L31.9896 44.111L32.6373 43.9128C32.2096 44.2064 31.824 44.5565 31.4912 44.9536L31.4414 45.0031V45.0527L30.7936 45.2015L31.5411 43.8632ZM31.84 45.1021C32.1427 44.7088 32.514 44.3728 32.9363 44.1103L32.3883 44.6554L32.5875 44.8535L33.2851 44.1597C32.9918 44.6484 32.7893 45.1855 32.6872 45.7455V45.7951L32.6373 45.8447L31.9896 46.5881L31.84 45.25V45.1012V45.1021ZM33.036 45.7463C33.0902 45.4358 33.191 45.1351 33.3349 44.8544L33.2851 46.4897L33.036 45.8951V45.7463ZM34.78 49.6615C34.7301 48.8685 34.7301 48.0757 34.6803 47.2827L34.9792 46.6385V47.5305H35.2781V46.6879L35.5771 47.4809L35.876 47.3817L35.5771 46.5391L36.1749 47.1834L36.424 46.9852L36.3243 46.886L36.424 45.9941L36.6731 46.886L36.972 46.7869L36.7229 45.9443L37.2215 46.6381L37.4706 46.4893L36.8727 45.6467L37.67 46.1426L37.8196 45.8949L37.0722 45.4488L37.3213 45.4984L37.421 45.6472L37.6202 45.548L37.969 45.5976L38.0188 45.3002H37.9191L38.1183 45.1021L37.3709 44.2595L38.3176 44.8046L38.4671 44.5568L37.47 43.9622L38.6161 44.2099L38.6659 43.9126L37.7193 43.7145L38.6659 43.6649V43.3676L37.6195 43.4171L38.6659 43.0702L38.5662 42.7729L37.569 43.1198L38.0676 42.7729L38.4663 42.5252L38.2671 42.327L37.9681 42.5252L37.2207 42.426L38.2179 42.3268L38.168 42.0295L37.0219 42.1287L38.0191 41.6826L37.9193 41.3853L36.9222 41.8314L37.7693 41.0879L37.5701 40.8402L36.7229 41.534L37.3208 40.5925L37.0717 40.4437L37.0219 40.3445L36.7229 40.4437L36.7728 40.2949H36.6232L36.8224 40.1462L36.6232 39.8984L35.6261 40.5923L36.3236 39.6507L36.0746 39.4526L35.2773 40.4444L35.7258 39.2549L35.4268 39.1557L35.078 40.1475L35.1778 39.1067H34.8788L34.7791 40.2466L34.53 39.1563L34.2311 39.2059L34.4802 40.3458L34.0815 39.652L34.2311 39.4043L33.9321 39.2555L33.8823 39.3051L33.5834 39.4539L33.6831 39.652L33.3841 40.2962L33.6332 39.1563L33.3343 39.1067L33.0852 40.2466L32.9855 39.1067L32.6865 39.1563L32.7863 40.1971L32.3876 39.1563L32.0887 39.2555L32.5372 40.445L31.7399 39.4532L31.4908 39.6514L32.1884 40.5929L31.1912 39.8991L30.9944 40.1434L31.2435 40.3415L31.0939 40.3911L31.1437 40.4903L30.8947 40.2921L30.8448 40.4409L30.5957 40.5897L31.1936 41.5312L30.3963 40.8374L30.1971 41.0851L31.0442 41.8286L29.9978 41.3825L29.8483 41.6302L30.8454 42.0763L29.7492 41.9275L29.6993 42.2248L30.6965 42.324L29.9989 42.4232L29.7 42.2744L29.5504 42.5222L29.8494 42.7203V42.8195H29.9491L30.4958 43.167L29.4986 42.8201L29.3989 43.1174L30.4453 43.4644L29.349 43.4148V43.7121L30.2957 43.7617L29.349 43.9598L29.3989 44.2571L30.545 44.0094L29.5478 44.6041L29.6974 44.8518L30.5942 44.2571L29.8468 45.0501L30.046 45.2483H29.9463L29.9961 45.5456L30.3449 45.496L30.5441 45.5952L30.6438 45.4464L30.8929 45.3968L30.1455 45.8429L30.295 46.0907L31.0924 45.5948L30.5443 46.3878L30.7934 46.5365L31.292 45.8427L31.0928 46.7347L31.3917 46.8339L31.6408 45.9419L31.7405 46.8339L31.6408 46.933L31.8899 47.1312L32.4878 46.4869L32.139 47.3295L32.4379 47.4287L32.7368 46.6357V47.4783H33.0358V46.5863L33.2848 47.1314L33.235 49.1137C31.3416 48.4694 29.5478 47.7756 28.2521 46.4376C25.362 43.4146 25.8604 40.6889 27.0562 38.6074L27.106 38.5082L27.1559 38.409L27.2057 38.3099H27.9033L42.0544 38.6568C42.0544 43.2162 40.7589 47.825 38.2675 51.1949C37.114 50.6304 35.9137 50.1661 34.6798 49.8073M37.2211 44.6036L37.819 45.2479L37.52 45.1983L37.2211 44.6036ZM36.4238 41.3822L36.5734 40.8372L36.8224 40.738L36.4238 41.3822ZM31.4908 41.3822L31.0921 40.738L31.3911 40.8372L31.4908 41.3822ZM30.7433 44.6036L30.3945 45.1983L30.0956 45.2479L30.7433 44.6036ZM42.1539 38.0123H34.2324C36.8732 36.3769 37.6705 34.1467 39.1155 34.2955C39.9128 34.3947 41.1086 34.692 41.856 34.7914C42.032 35.8568 42.1318 36.9333 42.155 38.0128L42.1539 38.0123ZM41.6553 34.3451C41.2566 34.2955 40.9078 34.1963 40.5092 34.1469C40.1105 34.0976 39.6124 33.9982 39.1639 33.9488C39.0014 33.8992 38.8277 33.8992 38.6653 33.9488C37.868 34.0976 37.1695 34.8903 36.6224 35.4365C35.8672 36.2961 34.9952 37.0467 34.0314 37.6665L33.4336 38.0134L27.3048 37.9638C28.1021 36.2293 30.4938 33.4044 31.7394 33.6027C32.3373 33.7019 33.1845 33.9496 33.8322 34.0986C33.8821 34.7925 33.9818 35.5359 34.0813 36.2297C34.1312 36.4774 34.1312 36.9731 34.5298 36.9731C34.9783 36.9731 34.9285 36.4772 34.9783 36.1801C35.1775 35.3871 35.4268 34.6439 35.6759 33.9005C37.2207 32.9087 37.2703 29.8367 40.31 29.7872H40.6089C41.1527 31.2656 41.5532 32.7923 41.8049 34.3466L41.6553 34.3451ZM31.4407 28.1503L33.2346 27.8034C34.2809 27.9025 35.5266 27.0104 36.0743 26.9114C36.1445 26.9128 36.2132 26.9316 36.2741 26.9662C36.3351 27.0009 36.3863 27.0501 36.4231 27.1095L35.3768 27.6054L35.5263 27.9028L36.6724 27.3577C36.7372 27.4011 36.7895 27.4604 36.8244 27.5299C36.8593 27.5994 36.8756 27.6766 36.8717 27.7542L35.6261 28.0515L35.6759 28.3488L36.9714 28.0515C36.9898 28.1011 36.9948 28.1546 36.9861 28.2068C36.9773 28.2589 36.9551 28.3079 36.9215 28.3488C36.3236 28.6958 35.5762 28.7453 34.9783 28.9931C35.2274 29.885 35.8255 30.9754 35.7756 31.8675V32.1649L35.1279 30.7772L34.829 30.926L35.7258 32.7101C35.6663 33.0461 35.5831 33.3776 35.4767 33.7019L34.7791 31.3734L34.4802 31.4725L35.3273 34.1982C35.0828 34.8278 34.883 35.4736 34.7295 36.1309C34.6297 36.676 34.7295 36.7752 34.6297 36.1805C34.2809 34.3964 34.2809 31.2248 33.4338 30.0357C33.0667 29.8245 32.6835 29.6423 32.2877 29.4907C31.9617 29.3961 31.628 29.3298 31.2905 29.2926C31.0414 29.3421 30.6428 29.4413 30.3937 29.4907C30.3937 29.0446 30.6428 28.0535 31.4401 28.1526M28.0518 26.32C27.3542 26.1218 27.3542 26.1218 28.1017 26.1218C29.3717 26.0507 30.643 26.2349 31.8398 26.6634C32.378 26.8605 32.8957 27.1093 33.3854 27.4062H33.2857L31.7899 27.7035C30.6438 26.9105 29.3484 26.6628 28.0529 26.3159M46.5887 56.8438L39.7125 50.104C44.7958 41.6794 43.5003 28.0511 35.8268 22.2032C33.3936 20.3229 30.3872 19.3263 27.3063 19.3788C21.8253 19.3788 17.7898 22.1045 15.2481 26.069L7.42519 18.3872L9.46832 15.8598C21.3274 13.9765 33.3854 13.7288 45.1946 15.8598L50.8742 22.897C48.7316 24.6812 47.1372 26.9112 46.7884 29.7856C46.3897 33.2547 47.9345 36.7239 49.23 39.846C50.5254 42.9682 51.8209 46.14 51.8209 49.5595C51.8209 52.3348 49.4292 54.8624 46.5889 56.8447" fill="#405965"/>
<defs>
<linearGradient id="paint0_linear_5602_534" x1="-139.025" y1="-52.2104" x2="-137.576" y2="-52.2104" gradientUnits="userSpaceOnUse">
<stop stop-color="#D8B56D"/>
<stop offset="0.51" stop-color="#EDD9B1"/>
<stop offset="0.53" stop-color="#ECD8AF"/>
<stop offset="1" stop-color="#D8B56B"/>
</linearGradient>
<linearGradient id="paint1_linear_5602_534" x1="-139.438" y1="-50.9684" x2="-137.987" y2="-50.9684" gradientUnits="userSpaceOnUse">
<stop stop-color="#B79644"/>
<stop offset="0.51" stop-color="#C7A865"/>
<stop offset="1" stop-color="#B89642"/>
</linearGradient>
<linearGradient id="paint2_linear_5602_534" x1="-139.221" y1="-51.4283" x2="-137.791" y2="-51.4283" gradientUnits="userSpaceOnUse">
<stop stop-color="#DBB872"/>
<stop offset="0.51" stop-color="#E0C28B"/>
<stop offset="1" stop-color="#DBB872"/>
</linearGradient>
<radialGradient id="paint3_radial_5602_534" cx="0" cy="0" r="1" gradientUnits="userSpaceOnUse" gradientTransform="translate(30.201 41.6733) scale(27.9832 27.4522)">
<stop stop-color="#01A668"/>
<stop offset="0.39" stop-color="#029D5F"/>
<stop offset="1" stop-color="#038647"/>
</radialGradient>
<radialGradient id="paint4_radial_5602_534" cx="0" cy="0" r="1" gradientUnits="userSpaceOnUse" gradientTransform="translate(17.9697 36.4046) scale(20.2155 19.8236)">
<stop stop-color="#E0F0E0"/>
<stop offset="0.14" stop-color="#D7EDE1"/>
<stop offset="0.37" stop-color="#BEE5E3"/>
<stop offset="0.65" stop-color="#96D7E7"/>
<stop offset="0.99" stop-color="#5EC5ED"/>
<stop offset="1" stop-color="#5CC4ED"/>
</radialGradient>
<linearGradient id="paint5_linear_5602_534" x1="-139.596" y1="-49.161" x2="-138.162" y2="-49.161" gradientUnits="userSpaceOnUse">
<stop stop-color="white"/>
<stop offset="0.18" stop-color="#FFFBF6"/>
<stop offset="0.48" stop-color="#FEEFDD"/>
<stop offset="0.86" stop-color="#FCDBB5"/>
<stop offset="1" stop-color="#FBD3A4"/>
</linearGradient>
<linearGradient id="paint6_linear_5602_534" x1="-141.785" y1="-42.3507" x2="-140.331" y2="-42.3507" gradientUnits="userSpaceOnUse">
<stop stop-color="#00AEB4"/>
<stop offset="0.18" stop-color="#09B0B6"/>
<stop offset="0.47" stop-color="#22B5BA"/>
<stop offset="0.84" stop-color="#4ABEC2"/>
<stop offset="1" stop-color="#5EC2C6"/>
</linearGradient>
<linearGradient id="paint7_linear_5602_534" x1="-92.0687" y1="-51.0607" x2="-90.6289" y2="-51.0607" gradientUnits="userSpaceOnUse">
<stop stop-color="#19A576"/>
<stop offset="0.33" stop-color="#149D6D"/>
<stop offset="0.87" stop-color="#068654"/>
<stop offset="1" stop-color="#027F4D"/>
</linearGradient>
<linearGradient id="paint8_linear_5602_534" x1="-141.802" y1="-40.326" x2="-140.354" y2="-40.326" gradientUnits="userSpaceOnUse">
<stop stop-color="#E9B68B"/>
<stop offset="0.3" stop-color="#E4AF82"/>
<stop offset="0.8" stop-color="#D69C69"/>
<stop offset="1" stop-color="#CF935D"/>
</linearGradient>
<linearGradient id="paint9_linear_5602_534" x1="-37.9186" y1="-37.2319" x2="-36.4687" y2="-37.2319" gradientUnits="userSpaceOnUse">
<stop stop-color="#19A576"/>
<stop offset="0.33" stop-color="#149D6D"/>
<stop offset="0.87" stop-color="#068654"/>
<stop offset="1" stop-color="#027F4D"/>
</linearGradient>
<linearGradient id="paint10_linear_5602_534" x1="-163.555" y1="26.0309" x2="-162.104" y2="26.0309" gradientUnits="userSpaceOnUse">
<stop stop-color="#DBDAD9"/>
<stop offset="0.35" stop-color="#E2E2E2"/>
<stop offset="0.92" stop-color="#F7F9FB"/>
<stop offset="1" stop-color="#FAFDFF"/>
</linearGradient>
<linearGradient id="paint11_linear_5602_534" x1="-190.563" y1="109.814" x2="-189.117" y2="109.814" gradientUnits="userSpaceOnUse">
<stop stop-color="#DBDAD9"/>
<stop offset="0.35" stop-color="#E2E2E2"/>
<stop offset="0.92" stop-color="#F7F9FB"/>
<stop offset="1" stop-color="#FAFDFF"/>
</linearGradient>
</defs>
</svg>
